<svg width="200" height="200" viewBox="0 0 200 200" xmlns="http://www.w3.org/2000/svg">
  <defs>
    <!-- Gradients -->
    <linearGradient id="goldGradient" x1="0%" y1="0%" x2="100%" y2="0%">
      <stop offset="0%" style="stop-color:#FFD700;stop-opacity:1" />
      <stop offset="50%" style="stop-color:#FFA500;stop-opacity:1" />
      <stop offset="100%" style="stop-color:#FFD700;stop-opacity:1" />
    </linearGradient>
    
    <linearGradient id="blueGradient" x1="0%" y1="0%" x2="100%" y2="100%">
      <stop offset="0%" style="stop-color:#01386A;stop-opacity:1" />
      <stop offset="100%" style="stop-color:#0056b3;stop-opacity:1" />
    </linearGradient>
    
    <!-- Shadow filter -->
    <filter id="shadow" x="-50%" y="-50%" width="200%" height="200%">
      <feDropShadow dx="2" dy="2" stdDeviation="3" flood-color="#000000" flood-opacity="0.3"/>
    </filter>
  </defs>
  
  <!-- Background circle -->
  <circle cx="100" cy="100" r="95" fill="url(#blueGradient)" stroke="url(#goldGradient)" stroke-width="4"/>
  
  <!-- Main T letter (large and prominent) -->
  <g transform="translate(100, 100)">
    <!-- T horizontal bar -->
    <rect x="-35" y="-45" width="70" height="15" rx="7" fill="url(#goldGradient)" filter="url(#shadow)"/>
    <!-- T vertical bar -->
    <rect x="-8" y="-45" width="16" height="60" rx="8" fill="url(#goldGradient)" filter="url(#shadow)"/>
  </g>
  
  <!-- Map pin with route lines -->
  <g transform="translate(100, 140)">
    <!-- Map pin body -->
    <circle cx="0" cy="-8" r="12" fill="url(#goldGradient)" filter="url(#shadow)"/>
    <!-- Map pin point -->
    <path d="M0 4 L-8 20 L8 20 Z" fill="url(#goldGradient)" filter="url(#shadow)"/>
    <!-- Route lines connecting T to map pin -->
    <path d="M0 -30 L0 -20" stroke="url(#goldGradient)" stroke-width="3" stroke-linecap="round"/>
    <path d="M-15 -25 L-12 -22" stroke="url(#goldGradient)" stroke-width="2" stroke-linecap="round"/>
    <path d="M15 -25 L12 -22" stroke="url(#goldGradient)" stroke-width="2" stroke-linecap="round"/>
  </g>
  
  <!-- Decorative elements around the logo -->
  <circle cx="50" cy="50" r="4" fill="url(#goldGradient)" opacity="0.6"/>
  <circle cx="150" cy="50" r="4" fill="url(#goldGradient)" opacity="0.6"/>
  <circle cx="50" cy="150" r="4" fill="url(#goldGradient)" opacity="0.6"/>
  <circle cx="150" cy="150" r="4" fill="url(#goldGradient)" opacity="0.6"/>
  
  <!-- Small route indicators -->
  <circle cx="70" cy="70" r="2" fill="url(#goldGradient)" opacity="0.4"/>
  <circle cx="130" cy="70" r="2" fill="url(#goldGradient)" opacity="0.4"/>
  <circle cx="70" cy="130" r="2" fill="url(#goldGradient)" opacity="0.4"/>
  <circle cx="130" cy="130" r="2" fill="url(#goldGradient)" opacity="0.4"/>
</svg>

